<svg width="148" height="96" viewBox="0 0 148 96" fill="none" xmlns="http://www.w3.org/2000/svg">
<g clip-path="url(#clip0_871_11)">
<path d="M128.199 25.0389C127.127 26.1172 125.673 26.7228 124.157 26.7228C122.641 26.7228 121.188 26.1172 120.116 25.0389C119.952 24.8807 119.734 24.7932 119.507 24.7955C119.28 24.7978 119.063 24.8897 118.903 25.0512C118.743 25.2128 118.653 25.4312 118.651 25.6593C118.649 25.8875 118.737 26.1072 118.895 26.271C120.292 27.673 122.185 28.4602 124.159 28.4602C126.132 28.4602 128.025 27.673 129.423 26.271C129.585 26.1077 129.677 25.8861 129.677 25.655C129.677 25.4239 129.585 25.2023 129.423 25.0389C129.343 24.958 129.247 24.8939 129.142 24.8501C129.037 24.8063 128.925 24.7838 128.811 24.7838C128.581 24.7838 128.361 24.8755 128.199 25.0389V25.0389Z" fill="black"/>
<path d="M140.616 13.856H139.232C138.702 12.4793 137.769 11.2966 136.558 10.4636C135.346 9.63058 133.912 9.18633 132.445 9.18935C130.978 9.19236 129.546 9.6425 128.338 10.4805C127.13 11.3185 126.202 12.505 125.677 13.8838L122.959 13.863C122.429 12.4886 121.499 11.3074 120.29 10.4745C119.082 9.64162 117.651 9.19592 116.186 9.19592C114.722 9.19592 113.291 9.64162 112.082 10.4745C110.874 11.3074 109.944 12.4886 109.414 13.863H108.283C108.054 13.863 107.834 13.9546 107.672 14.1178C107.51 14.281 107.418 14.5023 107.418 14.7331C107.418 14.9639 107.51 15.1852 107.672 15.3484C107.834 15.5115 108.054 15.6032 108.283 15.6032H108.975C108.938 15.8965 108.918 16.1917 108.916 16.4873C108.916 18.4258 109.681 20.2849 111.043 21.6556C112.406 23.0263 114.253 23.7964 116.179 23.7964C118.106 23.7964 119.953 23.0263 121.315 21.6556C122.678 20.2849 123.443 18.4258 123.443 16.4873C123.441 16.1951 123.421 15.9034 123.384 15.6137H125.245C125.209 15.8988 125.19 16.1859 125.19 16.4734C125.19 18.4119 125.955 20.271 127.317 21.6417C128.679 23.0124 130.527 23.7825 132.453 23.7825C134.379 23.7825 136.227 23.0124 137.589 21.6417C138.951 20.271 139.716 18.4119 139.716 16.4734C139.714 16.1778 139.695 15.8825 139.657 15.5893H140.616C140.845 15.5893 141.065 15.4976 141.227 15.3344C141.389 15.1713 141.48 14.9499 141.48 14.7192C141.48 14.4884 141.389 14.2671 141.227 14.1039C141.065 13.9407 140.845 13.849 140.616 13.849V13.856ZM116.179 22.0492C115.085 22.0492 114.015 21.7226 113.105 21.1106C112.195 20.4987 111.486 19.629 111.067 18.6114C110.648 17.5938 110.538 16.4741 110.752 15.3939C110.965 14.3136 111.492 13.3214 112.266 12.5425C113.04 11.7637 114.026 11.2333 115.1 11.0185C116.173 10.8036 117.286 10.9139 118.297 11.3354C119.308 11.7569 120.173 12.4706 120.781 13.3864C121.389 14.3022 121.713 15.3789 121.713 16.4803C121.713 17.9573 121.13 19.3737 120.093 20.4181C119.055 21.4624 117.647 22.0492 116.179 22.0492ZM132.453 22.0492C131.358 22.0492 130.288 21.7226 129.378 21.1106C128.468 20.4987 127.759 19.629 127.34 18.6114C126.921 17.5938 126.812 16.4741 127.025 15.3939C127.239 14.3136 127.766 13.3214 128.54 12.5425C129.314 11.7637 130.3 11.2333 131.373 11.0185C132.447 10.8036 133.559 10.9139 134.571 11.3354C135.582 11.7569 136.446 12.4706 137.054 13.3864C137.662 14.3022 137.987 15.3789 137.987 16.4803C137.987 17.9573 137.404 19.3737 136.366 20.4181C135.328 21.4624 133.921 22.0492 132.453 22.0492Z" fill="black"/>
<path d="M124.958 32.4664C124.935 32.4144 124.909 32.3643 124.878 32.3167C124.847 32.2682 124.81 32.2238 124.768 32.1845C124.729 32.143 124.684 32.1067 124.636 32.0766C124.59 32.0445 124.54 32.0176 124.487 31.9965C124.436 31.9739 124.383 31.9564 124.328 31.9443C124.214 31.9226 124.097 31.9226 123.982 31.9443C123.927 31.9564 123.872 31.9739 123.82 31.9965C123.768 32.0176 123.718 32.0445 123.671 32.0766C123.623 32.1067 123.579 32.143 123.54 32.1845C123.378 32.3476 123.287 32.5685 123.287 32.7988C123.287 33.0291 123.378 33.25 123.54 33.4131C123.579 33.4546 123.623 33.4909 123.671 33.521C123.766 33.5838 123.872 33.6286 123.982 33.6532C124.039 33.6585 124.096 33.6585 124.152 33.6532C124.265 33.6527 124.377 33.6297 124.482 33.5855C124.586 33.5413 124.681 33.4768 124.761 33.3957C124.802 33.3556 124.839 33.3113 124.871 33.2634C124.902 33.2159 124.929 33.1658 124.951 33.1138C124.972 33.0609 124.988 33.0062 124.999 32.9502C125.024 32.8355 125.024 32.7168 124.999 32.6021C124.989 32.5558 124.975 32.5104 124.958 32.4664V32.4664Z" fill="black"/>
<path d="M120.849 1.74027C125.877 1.74027 130.792 3.24062 134.972 6.05159C139.153 8.86257 142.411 12.8579 144.335 17.5324C146.26 22.2069 146.763 27.3505 145.782 32.3129C144.801 37.2753 142.38 41.8336 138.825 45.4113C135.269 48.989 130.74 51.4254 125.808 52.4125C120.877 53.3996 115.766 52.893 111.12 50.9568C106.475 49.0205 102.505 45.7416 99.7113 41.5347C96.9179 37.3278 95.427 32.3818 95.427 27.3222C95.4265 23.9626 96.0838 20.6358 97.3612 17.5319C98.6386 14.4279 100.511 11.6076 102.872 9.23201C105.233 6.85642 108.035 4.97209 111.12 3.68664C114.204 2.40119 117.51 1.73981 120.849 1.74027V1.74027ZM120.849 0C115.479 0 110.229 1.60242 105.764 4.60462C101.299 7.60681 97.8194 11.874 95.7643 16.8664C93.7093 21.8589 93.1717 27.3525 94.2193 32.6525C95.2669 37.9524 97.8528 42.8208 101.65 46.6419C105.447 50.4629 110.285 53.0651 115.552 54.1193C120.819 55.1736 126.278 54.6325 131.239 52.5646C136.2 50.4966 140.441 46.9947 143.424 42.5015C146.408 38.0084 148 32.726 148 27.3222C147.992 20.0784 145.129 13.1337 140.038 8.01163C134.948 2.88953 128.047 0.00829068 120.849 0V0Z" fill="black"/>
<path d="M47.1358 82.8158C45.162 82.8139 43.2695 82.0243 41.8735 80.6201C40.4774 79.216 39.6919 77.3119 39.6891 75.3257V69.0885C39.6891 68.8578 39.7803 68.6364 39.9424 68.4733C40.1046 68.3101 40.3245 68.2184 40.5538 68.2184C40.7832 68.2184 41.0031 68.3101 41.1653 68.4733C41.3274 68.6364 41.4185 68.8578 41.4185 69.0885V75.3257C41.4552 76.8266 42.0735 78.2536 43.1414 79.3021C44.2093 80.3506 45.6421 80.9375 47.1341 80.9375C48.6261 80.9375 50.059 80.3506 51.1268 79.3021C52.1947 78.2536 52.813 76.8266 52.8497 75.3257V69.0885C52.8497 68.8578 52.9408 68.6364 53.103 68.4733C53.2651 68.3101 53.4851 68.2184 53.7144 68.2184C53.9437 68.2184 54.1637 68.3101 54.3258 68.4733C54.488 68.6364 54.5791 68.8578 54.5791 69.0885V75.3257C54.5763 77.3113 53.7913 79.2148 52.396 80.6189C51.0007 82.023 49.1091 82.813 47.1358 82.8158V82.8158Z" fill="black"/>
<path d="M101.912 68.1627C103.885 68.1646 105.777 68.9538 107.172 70.3573C108.567 71.7608 109.353 73.664 109.355 75.6493V81.883C109.355 82.1137 109.264 82.3351 109.102 82.4982C108.94 82.6614 108.72 82.7531 108.491 82.7531C108.261 82.7531 108.041 82.6614 107.879 82.4982C107.717 82.3351 107.626 82.1137 107.626 81.883V75.6493C107.554 74.1751 106.921 72.7853 105.859 71.7676C104.796 70.7499 103.386 70.1823 101.919 70.1823C100.452 70.1823 99.0417 70.7499 97.9794 71.7676C96.917 72.7853 96.2843 74.1751 96.2121 75.6493V81.883C96.2121 82.1137 96.121 82.3351 95.9588 82.4982C95.7967 82.6614 95.5767 82.7531 95.3474 82.7531C95.1181 82.7531 94.8981 82.6614 94.736 82.4982C94.5738 82.3351 94.4827 82.1137 94.4827 81.883V75.6493C94.4855 73.6664 95.2687 71.7653 96.6611 70.3622C98.0535 68.9591 99.9416 68.1682 101.912 68.1627V68.1627Z" fill="black"/>
<path d="M67.5045 88.3881C65.5304 88.3853 63.6379 87.5949 62.2419 86.1902C60.846 84.7855 60.0605 82.8811 60.0578 80.8945V80.8945C60.0578 80.6637 60.1489 80.4424 60.3111 80.2792C60.4732 80.116 60.6932 80.0244 60.9225 80.0244C61.1518 80.0244 61.3718 80.116 61.5339 80.2792C61.6961 80.4424 61.7872 80.6637 61.7872 80.8945V80.8945C61.7402 81.6778 61.853 82.4625 62.1186 83.2003C62.3841 83.9381 62.7969 84.6134 63.3314 85.1848C63.866 85.7561 64.511 86.2114 65.2269 86.5226C65.9428 86.8338 66.7143 86.9943 67.4941 86.9943C68.2739 86.9943 69.0455 86.8338 69.7614 86.5226C70.4772 86.2114 71.1223 85.7561 71.6568 85.1848C72.1914 84.6134 72.6041 83.9381 72.8697 83.2003C73.1353 82.4625 73.248 81.6778 73.2011 80.8945V69.0885C73.2011 68.8578 73.2922 68.6364 73.4543 68.4733C73.6165 68.3101 73.8364 68.2184 74.0658 68.2184C74.2951 68.2184 74.515 68.3101 74.6772 68.4733C74.8393 68.6364 74.9304 68.8578 74.9304 69.0885V80.8945C74.9286 82.8777 74.1463 84.7795 72.7547 86.1839C71.363 87.5882 69.4753 88.3807 67.5045 88.3881V88.3881Z" fill="black"/>
<path d="M23.0353 54.6965C20.6069 54.6985 18.2155 54.0974 16.0732 52.9466C13.9309 51.7958 12.1039 50.1308 10.7542 48.0993C9.40457 46.0678 8.57391 43.7325 8.33593 41.3005C8.09795 38.8686 8.46001 36.4151 9.38999 34.1577C10.32 31.9002 11.7891 29.9086 13.6672 28.3594C15.5453 26.8102 17.7743 25.7513 20.1564 25.2766C22.5386 24.8019 25.0004 24.926 27.3234 25.638C29.6465 26.35 31.7591 27.6279 33.4738 29.3583C33.5987 29.5258 33.6593 29.7331 33.6446 29.942C33.6298 30.151 33.5407 30.3475 33.3935 30.4956C33.2463 30.6437 33.051 30.7335 32.8434 30.7483C32.6357 30.7632 32.4298 30.7021 32.2632 30.5765C30.4406 28.7425 28.1184 27.4935 25.5903 26.9876C23.0623 26.4817 20.4419 26.7415 18.0606 27.7341C15.6793 28.7268 13.644 30.4077 12.212 32.5644C10.78 34.721 10.0157 37.2566 10.0157 39.8503C10.0157 42.4441 10.78 44.9796 12.212 47.1363C13.644 49.293 15.6793 50.9739 18.0606 51.9666C20.4419 52.9592 23.0623 53.219 25.5903 52.7131C28.1184 52.2071 30.4406 50.9582 32.2632 49.1242C32.4261 48.9655 32.6444 48.8774 32.8711 48.8791C33.0979 48.8807 33.3149 48.9719 33.4754 49.1331C33.636 49.2942 33.7272 49.5123 33.7295 49.7404C33.7318 49.9686 33.6449 50.1885 33.4876 50.3528C32.1161 51.7346 30.4865 52.8298 28.6926 53.5753C26.8988 54.3208 24.9761 54.7018 23.0353 54.6965V54.6965Z" fill="black"/>
<path d="M64.0388 54.6965C62.932 54.6965 60.2341 53.9656 58.7746 52.5038C57.3806 51.0977 56.5977 49.1926 56.5977 47.2064C56.5977 45.2203 57.3806 43.3152 58.7746 41.9091C58.855 41.8282 58.9504 41.764 59.0554 41.7202C59.1605 41.6764 59.2731 41.6539 59.3868 41.6539C59.5005 41.6539 59.613 41.6764 59.7181 41.7202C59.8231 41.764 59.9186 41.8282 59.999 41.9091C60.0794 41.99 60.1431 42.086 60.1866 42.1917C60.2301 42.2974 60.2525 42.4107 60.2525 42.5251C60.2525 42.6395 60.2301 42.7528 60.1866 42.8585C60.1431 42.9642 60.0794 43.0603 59.999 43.1412C58.9292 44.2209 58.3285 45.6835 58.3285 47.2082C58.3285 48.7329 58.9292 50.1954 59.999 51.2752C61.085 52.3681 63.3539 52.9563 64.0388 52.9563C64.7236 52.9563 66.9926 52.3681 68.0821 51.2752C69.1518 50.1954 69.7526 48.7329 69.7526 47.2082C69.7526 45.6835 69.1518 44.2209 68.0821 43.1412C67.9994 43.061 67.9334 42.9651 67.8879 42.859C67.8424 42.7529 67.8184 42.6388 67.8173 42.5233C67.8161 42.4077 67.8378 42.2931 67.8812 42.1861C67.9245 42.0791 67.9886 41.9819 68.0696 41.9001C68.1507 41.8183 68.2472 41.7535 68.3534 41.7096C68.4596 41.6657 68.5734 41.6435 68.6882 41.6444C68.803 41.6452 68.9165 41.6691 69.0221 41.7145C69.1276 41.7599 69.2231 41.8261 69.303 41.9091C70.697 43.3152 71.4798 45.2203 71.4798 47.2064C71.4798 49.1926 70.697 51.0977 69.303 52.5038C67.8503 53.9656 65.1456 54.6965 64.0388 54.6965Z" fill="black"/>
<path d="M80.4748 41.8186C81.5693 41.8186 82.6393 42.1452 83.5493 42.7571C84.4594 43.369 85.1687 44.2387 85.5875 45.2563C86.0064 46.2739 86.116 47.3936 85.9025 48.4739C85.6889 49.5541 85.1619 50.5464 84.3879 51.3252C83.614 52.104 82.6279 52.6344 81.5544 52.8493C80.4809 53.0642 79.3682 52.9539 78.357 52.5324C77.3458 52.1109 76.4815 51.3971 75.8735 50.4813C75.2654 49.5655 74.9408 48.4888 74.9408 47.3874C74.9408 45.9105 75.5239 44.494 76.5617 43.4497C77.5995 42.4053 79.0071 41.8186 80.4748 41.8186V41.8186ZM80.4748 40.0783C79.0382 40.0783 77.6339 40.507 76.4395 41.3101C75.245 42.1133 74.3141 43.2548 73.7643 44.5903C73.2146 45.9259 73.0707 47.3955 73.351 48.8134C73.6313 50.2312 74.323 51.5336 75.3388 52.5558C76.3546 53.578 77.6488 54.2741 79.0578 54.5561C80.4667 54.8381 81.9272 54.6934 83.2544 54.1402C84.5816 53.587 85.716 52.6501 86.5141 51.4482C87.3122 50.2462 87.7382 48.833 87.7382 47.3874C87.7382 45.4489 86.9729 43.5898 85.6108 42.2191C84.2486 40.8484 82.4012 40.0783 80.4748 40.0783V40.0783Z" fill="black"/>
<path d="M118.407 69.8786C119.501 69.8786 120.571 70.2052 121.481 70.8171C122.392 71.4291 123.101 72.2988 123.52 73.3164C123.939 74.3339 124.048 75.4537 123.835 76.5339C123.621 77.6142 123.094 78.6064 122.32 79.3852C121.546 80.1641 120.56 80.6944 119.487 80.9093C118.413 81.1242 117.3 81.0139 116.289 80.5924C115.278 80.1709 114.414 79.4572 113.806 78.5414C113.198 77.6256 112.873 76.5489 112.873 75.4475C112.873 73.9705 113.456 72.5541 114.494 71.5097C115.532 70.4653 116.939 69.8786 118.407 69.8786ZM118.407 68.1384C116.97 68.1384 115.566 68.567 114.372 69.3702C113.177 70.1733 112.246 71.3148 111.696 72.6504C111.147 73.986 111.003 75.4556 111.283 76.8734C111.563 78.2912 112.255 79.5936 113.271 80.6158C114.287 81.638 115.581 82.3341 116.99 82.6162C118.399 82.8982 119.859 82.7534 121.187 82.2002C122.514 81.647 123.648 80.7102 124.446 79.5082C125.244 78.3062 125.67 76.8931 125.67 75.4475C125.67 73.509 124.905 71.6499 123.543 70.2791C122.181 68.9084 120.333 68.1384 118.407 68.1384V68.1384Z" fill="black"/>
<path d="M31.5196 84.5699L31.1253 84.1732L31.0284 84.0722C32.9167 82.8733 34.5124 81.2618 35.6973 79.3576C36.8822 77.4533 37.6258 75.305 37.873 73.072C38.1201 70.839 37.8645 68.5787 37.1251 66.4587C36.3857 64.3387 35.1815 62.4135 33.6017 60.8258C31.6741 58.8897 29.2552 57.5234 26.6087 56.8759C23.9623 56.2285 21.19 56.3247 18.5942 57.1541C15.9984 57.9836 13.6788 59.5143 11.8883 61.5795C10.0978 63.6447 8.90524 66.1649 8.44062 68.8654C7.976 71.5659 8.25718 74.3429 9.2535 76.8936C10.2498 79.4443 11.923 81.6707 14.0906 83.33C16.2582 84.9894 18.837 86.0179 21.5457 86.3034C24.2544 86.589 26.989 86.1206 29.4512 84.9493L29.9009 85.4018L30.2952 85.7986L32.8166 88.3394C32.979 88.5027 33.1992 88.5945 33.4288 88.5945C33.6584 88.5945 33.8786 88.5027 34.041 88.3394C34.2034 88.176 34.2946 87.9544 34.2946 87.7233C34.2946 87.4922 34.2034 87.2706 34.041 87.1073L31.5196 84.5699ZM23.0768 84.6465C19.9117 84.6391 16.8567 83.4768 14.4784 81.3753C12.1001 79.2737 10.5599 76.3755 10.1434 73.2182C9.72698 70.0609 10.4625 66.8587 12.2137 64.2056C13.9649 61.5525 16.6128 59.6285 19.6663 58.7905C22.7199 57.9524 25.9719 58.2572 28.8191 59.6484C31.6663 61.0395 33.9156 63.4224 35.1497 66.3554C36.3838 69.2883 36.5191 72.5721 35.5303 75.5977C34.5416 78.6233 32.496 81.1854 29.7729 82.8088L28.6039 81.6324C28.4415 81.469 28.2213 81.3772 27.9917 81.3772C27.762 81.3772 27.5418 81.469 27.3795 81.6324C27.2171 81.7958 27.1259 82.0174 27.1259 82.2484C27.1259 82.4795 27.2171 82.7011 27.3795 82.8645L28.1404 83.6267C26.5361 84.3003 24.815 84.6469 23.0768 84.6465V84.6465Z" fill="black"/>
<path d="M38.3783 53.1303C39.5305 54.0441 40.9307 54.5854 42.3945 54.6829C43.8583 54.7805 45.3172 54.4297 46.579 53.6767L47.4679 54.3728C47.5565 54.4479 47.6592 54.5043 47.7698 54.5386C47.8804 54.573 47.9968 54.5847 48.112 54.5729C48.2272 54.5612 48.3389 54.5263 48.4404 54.4703C48.542 54.4143 48.6313 54.3384 48.7031 54.247C48.7749 54.1556 48.8278 54.0506 48.8585 53.9383C48.8893 53.8259 48.8973 53.7085 48.8821 53.593C48.8669 53.4775 48.8288 53.3662 48.7701 53.2658C48.7113 53.1654 48.6331 53.0779 48.5402 53.0085L47.9902 52.5734C48.1998 52.3658 48.3973 52.1461 48.5817 51.9156C49.472 50.7812 50.0081 49.4067 50.1222 47.9657C50.2363 46.5247 49.9232 45.0821 49.2226 43.8202C48.5219 42.5583 47.4652 41.5337 46.1859 40.8762C44.9067 40.2186 43.4624 39.9575 42.0357 40.1259C40.609 40.2943 39.2639 40.8846 38.1706 41.8222C37.0773 42.7598 36.2848 44.0026 35.8933 45.3934C35.5019 46.7842 35.529 48.2606 35.9713 49.6359C36.4137 51.0112 37.2513 52.2236 38.3783 53.1199V53.1303ZM46.3093 43.0368C47.1684 43.7193 47.807 44.6429 48.1445 45.6907C48.4819 46.7385 48.503 47.8635 48.2051 48.9234C47.9071 49.9833 47.3035 50.9305 46.4706 51.6451C45.6377 52.3598 44.6129 52.8098 43.5258 52.9384C42.4387 53.0669 41.3381 52.8681 40.3633 52.3672C39.3884 51.8663 38.5831 51.0857 38.0491 50.1241C37.5152 49.1626 37.2766 48.0633 37.3635 46.9653C37.4504 45.8673 37.859 44.82 38.5374 43.9556C38.9871 43.3811 39.5448 42.9013 40.1787 42.5436C40.8127 42.186 41.5104 41.9575 42.2321 41.8712C42.9538 41.7849 43.6853 41.8425 44.3848 42.0407C45.0844 42.2389 45.7383 42.5738 46.3093 43.0263V43.0368Z" fill="black"/>
<path d="M80.9209 81.2495C82.0731 82.1633 83.4733 82.7046 84.9371 82.8022C86.4009 82.8997 87.8598 82.5489 89.1216 81.796L90.0071 82.4921C90.1873 82.6351 90.4167 82.7003 90.6447 82.6732C90.8727 82.6461 91.0806 82.529 91.2228 82.3476C91.365 82.1662 91.4298 81.9354 91.4028 81.706C91.3759 81.4766 91.2595 81.2673 91.0793 81.1242L90.5328 80.6891C90.7412 80.4827 90.9376 80.2642 91.1208 80.0348C92.0116 78.9005 92.5482 77.5259 92.6626 76.0848C92.777 74.6436 92.4641 73.2007 91.7635 71.9385C91.0629 70.6763 90.0061 69.6516 88.7267 68.9938C87.4473 68.3361 86.0028 68.075 84.5759 68.2434C83.149 68.4119 81.8038 69.0024 80.7104 69.9403C79.617 70.8782 78.8246 72.1213 78.4334 73.5123C78.0421 74.9034 78.0697 76.3801 78.5124 77.7554C78.9552 79.1308 79.7934 80.3431 80.9209 81.2391V81.2495ZM88.8518 71.156C89.7104 71.8388 90.3486 72.7625 90.6856 73.8103C91.0226 74.858 91.0433 75.9828 90.7451 77.0424C90.4469 78.102 89.8433 79.0488 89.0104 79.7632C88.1775 80.4776 87.1529 80.9275 86.0659 81.0559C84.979 81.1844 83.8787 80.9856 82.904 80.4849C81.9293 79.9841 81.1241 79.2037 80.5901 78.2425C80.056 77.2812 79.8172 76.1822 79.9038 75.0844C79.9904 73.9866 80.3986 72.9393 81.0766 72.0748C81.526 71.4995 82.0837 71.019 82.7178 70.6607C83.3519 70.3024 84.05 70.0734 84.7721 69.9868C85.4942 69.9002 86.2262 69.9576 86.9262 70.1558C87.6263 70.3541 88.2806 70.6892 88.8518 71.1421V71.156Z" fill="black"/>
<path d="M54.0534 25.3591C53.8241 25.3591 53.6041 25.4508 53.442 25.614C53.2798 25.7772 53.1887 25.9985 53.1887 26.2293V53.8264C53.1887 54.0572 53.2798 54.2785 53.442 54.4417C53.6041 54.6049 53.8241 54.6965 54.0534 54.6965C54.2827 54.6965 54.5027 54.6049 54.6648 54.4417C54.827 54.2785 54.9181 54.0572 54.9181 53.8264V26.2258C54.9172 25.9956 54.8257 25.7752 54.6636 25.6128C54.5016 25.4503 54.2821 25.3591 54.0534 25.3591V25.3591Z" fill="black"/>
<path d="M57.4637 68.2184C57.2344 68.2184 57.0144 68.3101 56.8523 68.4733C56.6901 68.6364 56.599 68.8578 56.599 69.0885V81.9456C56.599 82.1764 56.6901 82.3977 56.8523 82.5609C57.0144 82.7241 57.2344 82.8158 57.4637 82.8158C57.693 82.8158 57.9129 82.7241 58.0751 82.5609C58.2373 82.3977 58.3284 82.1764 58.3284 81.9456V69.0885C58.3284 68.8578 58.2373 68.6364 58.0751 68.4733C57.9129 68.3101 57.693 68.2184 57.4637 68.2184Z" fill="black"/>
<path d="M58.2627 65.2739C58.2403 65.2218 58.2137 65.1718 58.1831 65.1242C58.1518 65.0757 58.1147 65.0312 58.0724 64.992C58.0334 64.9505 57.9892 64.9142 57.941 64.8841C57.8945 64.852 57.8446 64.8251 57.7923 64.804C57.7411 64.7814 57.6878 64.7639 57.6332 64.7518C57.5189 64.73 57.4016 64.73 57.2873 64.7518C57.2316 64.7639 57.1771 64.7814 57.1247 64.804C57.0724 64.8251 57.0225 64.852 56.976 64.8841C56.9278 64.9142 56.8836 64.9505 56.8446 64.992C56.683 65.1551 56.5923 65.376 56.5923 65.6063C56.5923 65.8366 56.683 66.0575 56.8446 66.2206C56.8836 66.2621 56.9278 66.2983 56.976 66.3285C57.0709 66.3912 57.1764 66.4361 57.2873 66.4607C57.3431 66.4719 57.3999 66.4777 57.4568 66.4781C57.5701 66.4776 57.6822 66.4546 57.7867 66.4104C57.8911 66.3662 57.9859 66.3017 58.0655 66.2206C58.1069 66.1805 58.144 66.1362 58.1762 66.0883C58.2068 66.0407 58.2334 65.9907 58.2558 65.9387C58.2771 65.8858 58.2933 65.831 58.3042 65.7751C58.3287 65.6604 58.3287 65.5417 58.3042 65.427C58.2949 65.3748 58.281 65.3236 58.2627 65.2739Z" fill="black"/>
<path d="M74.882 65.2739C74.8597 65.2218 74.8331 65.1718 74.8025 65.1242C74.7712 65.0757 74.734 65.0312 74.6918 64.992C74.6528 64.9505 74.6086 64.9142 74.5603 64.8841C74.5138 64.852 74.464 64.8251 74.4116 64.804C74.3604 64.7814 74.3071 64.7639 74.2525 64.7518C74.1382 64.73 74.0209 64.73 73.9066 64.7518C73.8509 64.7639 73.7965 64.7814 73.7441 64.804C73.6917 64.8251 73.6419 64.852 73.5953 64.8841C73.5471 64.9142 73.5029 64.9505 73.4639 64.992C73.3023 65.1551 73.2116 65.376 73.2116 65.6063C73.2116 65.8366 73.3023 66.0575 73.4639 66.2206C73.5029 66.2621 73.5471 66.2983 73.5953 66.3285C73.6903 66.3912 73.7957 66.4361 73.9066 66.4607C73.9625 66.4719 74.0192 66.4777 74.0761 66.4781C74.1894 66.4776 74.3015 66.4546 74.406 66.4104C74.5105 66.3662 74.6052 66.3017 74.6849 66.2206C74.7262 66.1805 74.7633 66.1362 74.7956 66.0883C74.8262 66.0407 74.8528 65.9907 74.8751 65.9387C74.8964 65.8858 74.9127 65.831 74.9235 65.7751C74.948 65.6604 74.948 65.5417 74.9235 65.427C74.9143 65.3748 74.9004 65.3236 74.882 65.2739V65.2739Z" fill="black"/>
<path d="M137.088 95.9965H0.864695C0.751015 95.997 0.638368 95.9748 0.533253 95.9313C0.428138 95.8877 0.332633 95.8236 0.252248 95.7427C0.171863 95.6618 0.108189 95.5657 0.0648962 95.4599C0.0216036 95.3542 -0.000450499 95.2408 6.9738e-06 95.1264V16.8597C6.9738e-06 16.6289 0.0911078 16.4076 0.253268 16.2444C0.415429 16.0812 0.635366 15.9896 0.864695 15.9896H86.0641C86.2935 15.9896 86.5134 16.0812 86.6756 16.2444C86.8377 16.4076 86.9288 16.6289 86.9288 16.8597C86.9288 17.0905 86.8377 17.3118 86.6756 17.475C86.5134 17.6381 86.2935 17.7298 86.0641 17.7298H1.72938V94.2563H136.223V62.4233C136.223 62.1926 136.314 61.9712 136.476 61.8081C136.638 61.6449 136.858 61.5532 137.088 61.5532C137.317 61.5532 137.537 61.6449 137.699 61.8081C137.861 61.9712 137.952 62.1926 137.952 62.4233V95.1403C137.95 95.369 137.857 95.5873 137.695 95.7476C137.533 95.908 137.315 95.9975 137.088 95.9965Z" fill="black"/>
</g>
<defs>
<clipPath id="clip0_871_11">
<rect width="148" height="96" fill="white"/>
</clipPath>
</defs>
</svg>
