<svg width="97" height="97" viewBox="0 0 97 97" fill="none" xmlns="http://www.w3.org/2000/svg">
<path d="M59.2662 45.6033C57.6942 47.0257 55.5626 47.8247 53.3402 47.8247C51.1177 47.8247 48.9861 47.0257 47.4141 45.6033C47.1747 45.3945 46.8542 45.2792 46.5218 45.2822C46.1893 45.2852 45.8715 45.4064 45.6368 45.6195C45.402 45.8327 45.2691 46.1207 45.2667 46.4217C45.2643 46.7227 45.3926 47.0125 45.6239 47.2287C47.6734 49.0782 50.449 50.1167 53.3427 50.1167C56.2363 50.1167 59.012 49.0782 61.0615 47.2287C61.2996 47.0132 61.4333 46.7208 61.4333 46.416C61.4333 46.1112 61.2996 45.8188 61.0615 45.6033C60.9436 45.4966 60.8037 45.4119 60.6497 45.3542C60.4956 45.2964 60.3306 45.2667 60.1639 45.2667C59.8272 45.2667 59.5043 45.3878 59.2662 45.6033Z" fill="black"/>
<path d="M77.1566 29.3477H75.1538C74.3859 27.367 73.0362 25.6653 71.2824 24.4667C69.5286 23.2682 67.453 22.629 65.329 22.6334C63.2049 22.6377 61.1319 23.2853 59.3831 24.491C57.6342 25.6967 56.2914 27.4039 55.5316 29.3878L51.5962 29.3578C50.8296 27.3803 49.4832 25.6808 47.7336 24.4824C45.9841 23.2841 43.9131 22.6428 41.7926 22.6428C39.672 22.6428 37.6011 23.2841 35.8515 24.4824C34.1019 25.6808 32.7555 27.3803 31.989 29.3578H30.3517C30.0197 29.3578 29.7013 29.4897 29.4666 29.7244C29.2319 29.9592 29.1 30.2777 29.1 30.6097C29.1 30.9417 29.2319 31.2602 29.4666 31.495C29.7013 31.7297 30.0197 31.8616 30.3517 31.8616H31.3531C31.2995 32.2836 31.2711 32.7083 31.268 33.1336C31.268 35.9227 32.3758 38.5976 34.3476 40.5698C36.3195 42.542 38.9939 43.65 41.7825 43.65C44.5712 43.65 47.2456 42.542 49.2175 40.5698C51.1893 38.5976 52.2971 35.9227 52.2971 33.1336C52.2942 32.7133 52.2658 32.2935 52.212 31.8767H54.9057C54.8536 32.2869 54.8269 32.7 54.8256 33.1136C54.8256 35.9027 55.9334 38.5776 57.9053 40.5498C59.8771 42.522 62.5516 43.63 65.3402 43.63C68.1288 43.63 70.8033 42.522 72.7751 40.5498C74.747 38.5776 75.8548 35.9027 75.8548 33.1136C75.8517 32.6883 75.8233 32.2635 75.7697 31.8416H77.1566C77.4886 31.8416 77.8069 31.7097 78.0417 31.4749C78.2764 31.2401 78.4083 30.9217 78.4083 30.5897C78.4083 30.2576 78.2764 29.9392 78.0417 29.7044C77.8069 29.4696 77.4886 29.3377 77.1566 29.3377V29.3477ZM41.7825 41.1361C40.1981 41.1361 38.6492 40.6662 37.3318 39.7857C36.0144 38.9053 34.9876 37.6539 34.3813 36.1899C33.7749 34.7258 33.6163 33.1147 33.9254 31.5605C34.2345 30.0062 34.9975 28.5785 36.1179 27.4579C37.2382 26.3374 38.6657 25.5743 40.2197 25.2651C41.7737 24.9559 43.3844 25.1146 44.8483 25.7211C46.3121 26.3275 47.5633 27.3545 48.4435 28.6721C49.3238 29.9898 49.7937 31.5389 49.7937 33.1236C49.7937 35.2487 48.9496 37.2867 47.4473 38.7893C45.9449 40.2919 43.9072 41.1361 41.7825 41.1361ZM65.3402 41.1361C63.7558 41.1361 62.2069 40.6662 60.8895 39.7857C59.5721 38.9053 58.5453 37.6539 57.9389 36.1899C57.3326 34.7258 57.1739 33.1147 57.483 31.5605C57.7921 30.0062 58.5551 28.5785 59.6755 27.4579C60.7959 26.3374 62.2233 25.5743 63.7773 25.2651C65.3313 24.9559 66.9421 25.1146 68.4059 25.7211C69.8698 26.3275 71.1209 27.3545 72.0012 28.6721C72.8815 29.9898 73.3513 31.5389 73.3513 33.1236C73.3513 35.2487 72.5073 37.2867 71.0049 38.7893C69.5025 40.2919 67.4649 41.1361 65.3402 41.1361Z" fill="black"/>
<path d="M54.8828 56.53C54.8515 56.4571 54.8142 56.3869 54.7713 56.3201C54.7274 56.2521 54.6753 56.1898 54.6162 56.1347C54.5615 56.0765 54.4996 56.0256 54.432 55.9833C54.3668 55.9383 54.2969 55.9007 54.2235 55.8711C54.1517 55.8394 54.0771 55.8149 54.0005 55.7979C53.8404 55.7674 53.6759 55.7674 53.5158 55.7979C53.4377 55.8149 53.3614 55.8394 53.2879 55.8711C53.2146 55.9007 53.1447 55.9383 53.0795 55.9833C53.0119 56.0256 52.95 56.0765 52.8953 56.1347C52.6688 56.3634 52.5417 56.6732 52.5417 56.9961C52.5417 57.3191 52.6688 57.6289 52.8953 57.8576C52.95 57.9158 53.0119 57.9667 53.0795 58.0089C53.2125 58.097 53.3604 58.1598 53.5158 58.1944C53.5948 58.2019 53.6743 58.2019 53.7533 58.1944C53.9121 58.1937 54.0692 58.1614 54.2156 58.0994C54.362 58.0374 54.4948 57.947 54.6065 57.8332C54.6645 57.777 54.7164 57.7149 54.7616 57.6478C54.8045 57.581 54.8418 57.5108 54.8731 57.4379C54.903 57.3638 54.9257 57.287 54.9409 57.2085C54.9753 57.0476 54.9753 56.8812 54.9409 56.7204C54.9267 56.6555 54.9072 56.5918 54.8828 56.53Z" fill="black"/>
<path d="M48.5 11.4145C55.8348 11.4145 63.0049 13.5895 69.1036 17.6645C75.2023 21.7395 79.9556 27.5315 82.7626 34.308C85.5695 41.0845 86.3039 48.5411 84.8729 55.735C83.442 62.9289 79.9099 69.5369 74.7234 74.7234C69.5369 79.9099 62.9289 83.4419 55.735 84.8729C48.5411 86.3039 41.0845 85.5694 34.308 82.7625C27.5315 79.9556 21.7395 75.2023 17.6645 69.1036C13.5895 63.0049 11.4145 55.8348 11.4145 48.5C11.4138 43.6297 12.3726 38.8069 14.2361 34.3072C16.0996 29.8075 18.8313 25.7189 22.2751 22.2751C25.719 18.8313 29.8075 16.0996 34.3072 14.2361C38.8069 12.3726 43.6297 11.4138 48.5 11.4145ZM48.5 8.89166C40.6662 8.89166 33.0084 11.2147 26.4948 15.5669C19.9813 19.9191 14.9045 26.1051 11.9067 33.3425C8.90882 40.58 8.12445 48.5439 9.65274 56.2272C11.181 63.9104 14.9534 70.968 20.4927 76.5073C26.032 82.0466 33.0896 85.819 40.7728 87.3473C48.4561 88.8755 56.42 88.0912 63.6575 85.0933C70.8949 82.0955 77.0809 77.0188 81.4331 70.5052C85.7853 63.9916 88.1083 56.3338 88.1083 48.5C88.0963 37.9989 83.9194 27.9313 76.494 20.5059C69.0686 13.0805 59.0011 8.90368 48.5 8.89166Z" fill="black"/>
</svg>
